<?xml version="1.0" encoding="UTF-8"?>
<svg xmlns="http://www.w3.org/2000/svg" xmlns:xlink="http://www.w3.org/1999/xlink" width="3001" height="3001" viewBox="0 0 3001 3001">

<path fill-rule="evenodd" fill="rgb(0%, 0%, 0%)" fill-opacity="1" d="M 1809.589844 1259.71875 C 1747.769531 1197.890625 1662.328125 1159.640625 1567.96875 1159.640625 C 1473.601562 1159.640625 1388.160156 1197.890625 1326.339844 1259.71875 C 1264.5 1321.539062 1226.261719 1406.980469 1226.261719 1501.351562 C 1226.261719 1595.710938 1264.5 1681.148438 1326.339844 1742.980469 C 1388.171875 1804.808594 1473.601562 1843.058594 1567.96875 1843.058594 C 1662.328125 1843.058594 1747.761719 1804.808594 1809.589844 1742.980469 C 1871.421875 1681.140625 1909.671875 1595.710938 1909.671875 1501.351562 C 1909.671875 1406.980469 1871.421875 1321.550781 1809.589844 1259.71875 Z M 1034.539062 1476.890625 C 1053.089844 1451.429688 1064.179688 1420.148438 1064.550781 1386.300781 C 1064.5 1385.699219 1064.480469 1385.089844 1064.480469 1384.46875 L 1064.480469 1117.75 C 1064.480469 1114.460938 1063.121094 1111.441406 1060.929688 1109.261719 L 1060.980469 1109.210938 C 1058.800781 1107.050781 1055.761719 1105.699219 1052.429688 1105.699219 C 1049.148438 1105.699219 1046.128906 1107.078125 1043.941406 1109.261719 L 1043.890625 1109.210938 C 1041.730469 1111.390625 1040.390625 1114.421875 1040.390625 1117.75 L 1040.390625 1384.46875 C 1040.390625 1401.039062 1033.589844 1416.128906 1022.648438 1427.078125 L 1022.558594 1427.179688 C 1011.621094 1438.101562 996.527344 1444.910156 979.960938 1444.910156 C 964.175781 1444.910156 949.738281 1438.738281 938.957031 1428.71875 C 938.371094 1428.238281 937.808594 1427.71875 937.257812 1427.179688 C 926.320312 1416.230469 919.527344 1401.101562 919.527344 1384.46875 L 919.527344 1117.75 C 919.527344 1114.460938 918.152344 1111.449219 915.964844 1109.261719 L 916.011719 1109.210938 L 915.964844 1109.171875 C 913.839844 1107.03125 910.828125 1105.699219 907.476562 1105.699219 C 904.507812 1105.699219 901.796875 1106.75 899.734375 1108.480469 L 898.988281 1109.261719 C 896.804688 1111.449219 895.429688 1114.460938 895.429688 1117.75 L 895.429688 1384.46875 C 895.429688 1401.039062 888.625 1416.128906 877.699219 1427.078125 L 877.601562 1427.179688 C 866.660156 1438.101562 851.5625 1444.910156 834.996094 1444.910156 C 819.226562 1444.910156 804.78125 1438.738281 793.996094 1428.71875 C 793.414062 1428.238281 792.851562 1427.71875 792.308594 1427.179688 C 781.363281 1416.230469 774.570312 1401.101562 774.570312 1384.46875 L 774.570312 1117.75 C 774.570312 1114.460938 773.199219 1111.449219 771.015625 1109.261719 C 768.828125 1107.078125 765.808594 1105.699219 762.527344 1105.699219 C 759.554688 1105.699219 756.839844 1106.75 754.78125 1108.480469 L 754.03125 1109.261719 C 751.847656 1111.449219 750.476562 1114.460938 750.476562 1117.75 L 750.476562 1384.46875 L 750.386719 1384.46875 L 750.394531 1385.140625 L 750.394531 1385.328125 C 750.566406 1419.539062 761.6875 1451.191406 780.414062 1476.890625 C 799.320312 1502.828125 826.0625 1522.789062 857.175781 1533.289062 C 867.601562 1535.980469 875.316406 1545.449219 875.316406 1556.71875 L 875.316406 1864.828125 C 875.316406 1873.648438 878.941406 1881.691406 884.78125 1887.519531 C 890.605469 1893.359375 898.660156 1896.988281 907.476562 1896.988281 C 916.316406 1896.988281 924.359375 1893.398438 930.179688 1887.621094 L 930.277344 1887.519531 C 936.054688 1881.710938 939.644531 1873.671875 939.644531 1864.828125 L 939.644531 1556.71875 L 939.691406 1556.71875 C 939.683594 1546.539062 946.164062 1537.078125 956.371094 1533.761719 C 988.082031 1523.390625 1015.351562 1503.238281 1034.539062 1476.890625 Z M 2218.128906 1106.050781 C 2087.859375 1106.050781 2070.710938 1305.289062 2070.710938 1466.050781 C 2070.710938 1503.519531 2071.441406 1533.878906 2072.089844 1560.851562 C 2072.710938 1586.011719 2073.261719 1608.609375 2073.261719 1622.730469 C 2073.261719 1632.441406 2076.988281 1641.199219 2083 1647.460938 C 2088.78125 1653.488281 2096.738281 1657.238281 2105.421875 1657.238281 L 2161.78125 1657.238281 C 2175.128906 1657.238281 2185.96875 1668.078125 2185.96875 1681.429688 L 2185.96875 1862.46875 C 2185.96875 1863.179688 2185.941406 1863.890625 2185.878906 1864.578125 L 2185.871094 1864.828125 L 2185.96875 1864.828125 C 2185.96875 1873.710938 2189.578125 1881.769531 2195.378906 1887.570312 L 2196.28125 1888.53125 C 2202 1893.78125 2209.679688 1896.988281 2218.128906 1896.988281 C 2227.019531 1896.988281 2235.070312 1893.378906 2240.878906 1887.570312 C 2246.691406 1881.769531 2250.300781 1873.710938 2250.300781 1864.828125 C 2250.300781 1864.121094 2250.320312 1863.410156 2250.378906 1862.71875 L 2250.390625 1862.46875 L 2250.300781 1862.46875 L 2250.300781 1105.070312 C 2250.300781 1104.519531 2244.398438 1105.710938 2238.058594 1105.710938 C 2231.609375 1105.710938 2229.929688 1105.761719 2228.371094 1105.789062 Z M 1700.210938 1369.101562 C 1666.378906 1335.261719 1619.601562 1314.328125 1567.96875 1314.328125 C 1516.320312 1314.328125 1469.550781 1335.261719 1435.710938 1369.101562 C 1401.878906 1402.929688 1380.949219 1449.699219 1380.949219 1501.351562 C 1380.949219 1552.988281 1401.878906 1599.761719 1435.710938 1633.601562 C 1469.550781 1667.421875 1516.320312 1688.359375 1567.96875 1688.359375 C 1619.601562 1688.359375 1666.378906 1667.421875 1700.210938 1633.601562 C 1734.039062 1599.761719 1754.980469 1552.988281 1754.980469 1501.351562 C 1754.980469 1449.699219 1734.039062 1402.929688 1700.210938 1369.101562 Z M 1734.421875 1334.890625 C 1777 1377.488281 1803.359375 1436.351562 1803.359375 1501.351562 C 1803.359375 1566.339844 1777 1625.199219 1734.421875 1667.800781 C 1691.820312 1710.390625 1632.960938 1736.75 1567.96875 1736.75 C 1502.960938 1736.75 1444.109375 1710.390625 1401.511719 1667.800781 C 1358.921875 1625.199219 1332.558594 1566.339844 1332.558594 1501.351562 C 1332.558594 1436.351562 1358.921875 1377.488281 1401.511719 1334.890625 C 1444.109375 1292.300781 1502.960938 1265.949219 1567.96875 1265.949219 C 1632.960938 1265.949219 1691.820312 1292.300781 1734.421875 1334.890625 "/>
</svg>
